<svg width="325" height="94" viewBox="0 0 325 94" fill="none" xmlns="http://www.w3.org/2000/svg" aria-label="CIM">
  <path d="M187.638 73.7004C188.27 74.0798 188.46 74.8387 188.08 75.471C181.756 85.9687 168.919 94 151.971 94C131.102 94 115.988 83.3759 111.941 64.6572C106.313 38.6661 126.676 13.6868 153.236 14.003C169.235 14.1927 181.756 22.2872 187.827 32.4054C188.207 33.0378 187.954 33.7967 187.385 34.1761L182.199 37.2116C177.077 40.2471 170.753 39.6147 166.073 36.0101C162.342 33.1643 157.852 31.8363 152.477 31.8363C139.07 31.8363 130.154 39.6779 130.154 54.0331C130.154 68.3883 139.07 76.2299 152.477 76.2299C158.801 76.2299 164.05 74.4592 168.223 70.4119C171.385 67.3765 176.255 66.997 180.049 69.2104L187.638 73.7004Z" fill="#ffffff"/>
  <path d="M215.653 16.9746C207.242 16.9746 200.412 23.8044 200.412 32.2152V90.2051C200.412 90.9007 200.981 91.4699 201.677 91.4699H218.119C218.815 91.4699 219.384 90.9007 219.384 90.2051V18.3026C219.384 17.5438 218.815 16.9746 218.056 16.9746H215.653V16.9746Z" fill="#ffffff"/>
  <path d="M324.423 17.733V90.2046C324.423 90.9002 323.854 91.4693 323.158 91.4693H306.842C306.147 91.4693 305.578 90.9002 305.578 90.2046V45.558C305.578 44.9256 304.756 44.6727 304.376 45.1786L287.049 68.6401C283.318 73.6992 275.729 73.8257 271.808 68.8931L252.837 45.0521C253.469 44.5462 252.71 44.7991 252.71 45.4315V90.1413C252.71 90.837 252.141 91.4061 251.445 91.4061H235.699C235.003 91.4061 234.434 90.837 234.434 90.1413V17.733C234.434 17.0373 235.003 16.4682 235.699 16.4682H244.299C251.066 16.4682 257.453 19.8198 261.311 25.3848L278.259 50.048C278.828 50.8701 280.092 50.8701 280.662 50.048L298.242 25.1951C302.1 19.6934 308.423 16.4682 315.127 16.4682H323.221C323.854 16.4049 324.423 16.9741 324.423 17.733Z" fill="#ffffff"/>
  <path d="M77.4262 93.9115C72.4867 93.9115 68.5352 89.8982 68.5352 85.0205V8.89103C68.5352 3.95157 72.5485 0 77.4262 0C82.3039 0 86.3172 4.01331 86.3172 8.89103V84.9588C86.3172 89.8982 82.3657 93.9115 77.4262 93.9115Z" fill="#32C87D"/>
  <path d="M54.5811 20.0664C49.6416 20.0664 45.69 24.0797 45.69 29.0192V43.5289C45.69 44.8872 44.5787 46.0603 43.1586 46.0603C41.8002 46.0603 40.6271 44.9489 40.6271 43.5289V42.9114C40.6271 37.972 36.6138 34.0204 31.736 34.0204C26.7966 34.0204 22.845 38.0337 22.845 42.9114V69.3375C22.845 70.6959 21.7336 71.869 20.3135 71.869C18.9552 71.869 17.7821 70.7576 17.7821 69.3375V50.8146C17.7821 45.8751 13.7688 41.9235 8.89103 41.9235C4.01331 41.8618 0 45.8134 0 50.7528V84.9586C0 89.8981 4.01331 93.8496 8.89103 93.8496C13.8305 93.8496 17.7821 89.8363 17.7821 84.9586V84.1559C17.7821 82.7976 18.8934 81.6245 20.3135 81.6245C21.6719 81.6245 22.845 82.7358 22.845 84.1559V84.9586C22.845 89.8981 26.8583 93.8496 31.736 93.8496C36.6755 93.8496 40.6271 89.8363 40.6271 84.9586V58.3472C40.6271 56.9889 41.7385 55.8158 43.1586 55.8158C44.5169 55.8158 45.69 56.9271 45.69 58.3472V84.9586C45.69 89.8981 49.7033 93.8496 54.5811 93.8496C59.4588 93.8496 63.4721 89.8363 63.4721 84.9586V29.0192C63.4721 24.0797 59.5205 20.0664 54.5811 20.0664Z" fill="#006CFF"/>
</svg>
